<svg xmlns="http://www.w3.org/2000/svg">
  <symbol id="i-Construction">
    <rect x="2" y="6" width="20" height="8" rx="1" />
    <path d="M17 14v7" />
    <path d="M7 14v7" />
    <path d="M17 3v3" />
    <path d="M7 3v3" />
    <path d="M10 14 2.3 6.3" />
    <path d="m14 6 7.7 7.7" />
    <path d="m8 6 8 8" />
  </symbol>
  <symbol id="i-Moon">
    <path d="M12 3a6 6 0 0 0 9 9 9 9 0 1 1-9-9Z" />
  </symbol>
  <symbol id="i-Sun">
    <circle cx="12" cy="12" r="4" />
    <path d="M12 2v2" />
    <path d="M12 20v2" />
    <path d="m4.93 4.93 1.41 1.41" />
    <path d="m17.66 17.66 1.41 1.41" />
    <path d="M2 12h2" />
    <path d="M20 12h2" />
    <path d="m6.34 17.66-1.41 1.41" />
    <path d="m19.07 4.93-1.41 1.41" />
  </symbol>
</svg>